<?xml version="1.0" standalone="no"?>
<!DOCTYPE svg PUBLIC "-//W3C//DTD SVG 20010904//EN"
 "http://www.w3.org/TR/2001/REC-SVG-20010904/DTD/svg10.dtd">
<svg version="1.0" xmlns="http://www.w3.org/2000/svg"
 width="700.000000pt" height="700.000000pt" viewBox="0 0 700.000000 700.000000"
 preserveAspectRatio="xMidYMid meet">
<metadata>
Created by potrace 1.14, written by Peter Selinger 2001-2017
</metadata>
<g transform="translate(0.000000,700.000000) scale(0.100000,-0.100000)"
fill="#000000" stroke="none">
<path d="M3387 6775 c-1 -2 -78 -5 -172 -9 -193 -7 -225 -10 -387 -37 -653
-109 -1062 -434 -1197 -952 -20 -77 -23 -92 -40 -217 -13 -97 -6 -342 14 -450
9 -52 18 -97 20 -99 3 -2 7 5 11 15 72 209 222 469 392 680 309 384 815 773
1320 1013 92 44 99 49 72 53 -17 3 -31 4 -33 3z"/>
<path d="M5210 6470 c-230 -231 -497 -384 -955 -545 -82 -30 -177 -63 -210
-75 -95 -34 -352 -164 -450 -229 -49 -32 -148 -107 -220 -166 -71 -59 -143
-113 -158 -122 -34 -17 -118 -32 -201 -34 l-60 -2 32 -27 c18 -15 55 -38 82
-51 27 -13 49 -28 50 -32 0 -13 -107 -183 -167 -265 -121 -165 -195 -222 -287
-222 -85 0 -145 44 -161 118 -7 35 -20 42 -28 15 -3 -10 -30 -86 -61 -170
-112 -306 -131 -453 -57 -453 15 0 36 7 47 15 28 21 31 19 39 -27 11 -61 11
-61 34 -131 60 -179 195 -324 377 -404 80 -35 230 -73 290 -73 l33 0 -83 83
c-124 124 -172 238 -140 331 17 48 36 72 84 107 29 21 43 24 80 19 63 -8 76
-3 99 35 38 65 92 81 194 58 79 -18 140 -51 224 -121 l71 -61 8 27 c4 15 8 29
9 32 1 3 5 24 10 48 6 33 11 41 24 38 9 -3 61 -20 116 -37 55 -17 127 -39 160
-49 33 -10 89 -27 125 -39 36 -11 68 -21 71 -21 3 0 2 24 -1 53 -26 198 88
315 312 317 l48 0 -39 52 c-61 80 -60 86 13 90 33 3 144 4 246 3 210 -2 290
-16 379 -67 134 -75 128 -73 246 -73 113 0 175 15 276 66 l37 18 123 -127 c68
-70 161 -175 205 -233 45 -58 108 -129 140 -157 134 -118 338 -187 562 -191
82 -1 85 0 56 13 -134 60 -376 251 -496 393 -88 104 -188 286 -188 343 0 54
11 64 61 56 50 -8 97 -35 157 -90 23 -21 42 -34 42 -29 0 26 -58 179 -96 256
-183 365 -477 626 -894 790 -171 68 -420 128 -620 151 -25 3 -47 5 -50 5 -2 1
34 26 80 57 256 169 427 384 476 599 9 38 13 182 6 206 -7 23 -13 18 -102 -71z
m-1342 -1338 c-69 -78 -168 -146 -248 -169 -66 -19 -161 -20 -214 -1 l-39 14
38 42 c68 76 204 125 380 138 44 3 82 8 84 10 2 2 8 1 13 -2 5 -4 -1 -18 -14
-32z"/>
<path d="M1549 6189 c-297 -252 -509 -567 -603 -894 -93 -323 -68 -695 69
-1040 50 -124 203 -419 205 -395 1 3 3 91 5 195 3 105 7 204 9 220 7 63 24
184 30 220 19 111 49 235 82 336 14 45 23 88 20 105 -3 16 -10 50 -15 77 -16
86 -11 342 10 472 36 223 114 458 220 664 27 52 47 96 45 98 -2 3 -37 -24 -77
-58z"/>
<path d="M551 4982 c-91 -134 -170 -325 -206 -497 -20 -92 -27 -324 -14 -430
44 -348 250 -724 578 -1053 129 -130 180 -176 296 -268 122 -96 116 -95 99
-22 -42 186 -59 256 -96 383 -103 356 -212 609 -364 845 -99 152 -120 191
-167 301 -38 89 -73 208 -85 294 -9 67 -9 330 1 428 4 42 5 77 3 77 -3 0 -23
-26 -45 -58z"/>
<path d="M5258 4035 c-2 -2 -52 -5 -113 -9 -60 -3 -126 -8 -145 -11 -19 -3
-57 -7 -85 -10 -27 -3 -61 -8 -75 -10 -14 -2 -68 -11 -120 -19 -52 -9 -106
-18 -120 -21 -14 -3 -38 -8 -55 -11 -63 -11 -300 -67 -320 -75 -12 -5 5 -6 45
-3 99 9 395 11 485 3 104 -9 205 -20 230 -25 11 -3 56 -12 100 -20 399 -78
779 -256 1102 -515 100 -80 312 -292 350 -350 26 -40 39 -48 40 -26 1 6 4 32
7 57 7 58 8 244 1 295 -44 322 -223 535 -551 658 -94 36 -239 66 -397 82 -56
6 -374 14 -379 10z"/>
<path d="M185 3537 c2 -74 6 -148 9 -164 3 -15 7 -44 10 -63 43 -304 203 -649
421 -911 224 -268 593 -532 965 -691 19 -9 63 -27 96 -42 34 -14 67 -26 74
-26 6 0 -13 46 -43 104 -186 351 -423 647 -660 824 -51 37 -144 107 -207 154
-290 218 -437 415 -600 808 -28 69 -56 129 -60 134 -5 5 -7 -52 -5 -127z"/>
<path d="M5185 3416 c454 -148 783 -453 969 -902 29 -70 81 -241 90 -299 4
-22 11 -46 15 -53 16 -26 105 246 126 383 7 48 8 220 1 255 -35 169 -77 252
-180 356 -132 132 -314 218 -551 259 -16 3 -37 8 -45 10 -16 5 -67 11 -171 20
-37 4 -138 8 -225 10 l-159 3 130 -42z"/>
<path d="M2125 3055 c18 -17 25 -36 26 -62 0 -21 2 -240 5 -486 3 -397 2 -451
-12 -472 -9 -13 -25 -27 -36 -31 -40 -12 -4 -17 179 -20 l189 -4 135 137 135
138 0 303 -1 304 -105 60 c-58 33 -144 82 -191 109 l-87 49 -130 0 -131 0 24
-25z m275 -94 c25 -15 59 -33 75 -41 17 -8 41 -22 56 -31 l25 -18 0 -340 -1
-340 -58 -59 -59 -59 -55 22 -56 23 -3 440 c-3 496 -11 452 76 403z"/>
<path d="M5311 3011 c154 -135 292 -414 344 -696 8 -42 10 -53 22 -150 16
-123 8 -526 -13 -659 -27 -176 -34 -215 -39 -239 -7 -36 3 -30 68 39 208 224
343 464 391 694 19 89 13 257 -12 340 -76 257 -301 476 -664 648 -140 67 -149
69 -97 23z"/>
<path d="M2908 2972 c-35 -3 -37 -5 -43 -46 -6 -41 5 -71 49 -133 1 -1 22 3
48 8 43 10 48 14 58 47 14 50 13 62 -8 97 -18 30 -30 33 -104 27z"/>
<path d="M3610 2970 c-30 -4 -35 -9 -42 -43 -7 -32 -4 -46 18 -83 14 -24 29
-46 32 -48 4 -2 27 2 51 8 39 10 46 16 57 50 12 34 11 43 -5 79 -20 44 -35 49
-111 37z"/>
<path d="M4442 2778 c-22 -18 -63 -51 -91 -73 -28 -22 -51 -44 -52 -50 0 -5
-3 -19 -5 -30 -8 -33 -13 -258 -7 -293 8 -47 150 -167 199 -167 19 -1 38 2 43
5 13 8 91 122 91 132 0 10 -52 78 -60 78 -3 0 -6 -18 -7 -41 -2 -22 -12 -61
-23 -86 l-20 -46 -28 26 c-26 25 -28 34 -31 114 -2 49 -4 105 -6 126 -1 20 2
40 8 44 20 12 111 6 150 -10 l37 -16 20 38 c19 38 19 38 -2 115 l-22 77 -68
45 c-38 24 -73 44 -77 44 -5 0 -27 -15 -49 -32z m80 -114 c21 -48 38 -89 38
-93 0 -3 -27 -6 -60 -6 l-59 0 5 45 c12 122 20 158 32 146 3 -3 22 -45 44 -92z"/>
<path d="M3137 2783 c-2 -5 -3 -119 -2 -255 l1 -248 48 -69 c38 -57 51 -69 66
-63 11 4 68 46 128 93 l109 86 2 134 c1 74 4 154 5 179 4 67 0 74 -60 91 l-54
16 4 -208 4 -208 -30 -35 c-26 -31 -32 -34 -58 -25 -28 10 -28 11 -30 102 -6
322 -6 319 -37 345 -15 14 -40 35 -55 48 -30 26 -35 28 -41 17z"/>
<path d="M3898 2732 c-42 -31 -77 -60 -78 -64 0 -5 14 -8 30 -8 l30 0 0 -234
c0 -224 -1 -235 -20 -249 -18 -13 -10 -14 76 -15 91 -1 96 -1 81 16 -22 25
-27 66 -27 255 -1 167 -1 169 25 203 26 34 48 41 73 25 13 -8 20 -121 25 -434
2 -110 0 -133 -16 -159 l-18 -30 33 20 c18 10 54 31 80 46 l46 27 -1 263 -2
264 -45 66 c-25 36 -49 66 -53 66 -16 0 -72 -44 -114 -89 l-42 -46 2 68 c1 37
0 67 -3 67 -3 -1 -40 -27 -82 -58z"/>
<path d="M2885 2483 c0 -256 -5 -322 -30 -359 -18 -27 -31 -24 107 -27 43 -1
78 -1 78 1 0 2 -9 12 -19 23 -12 13 -18 31 -16 47 15 116 26 495 17 535 -4 14
-16 17 -71 17 l-66 0 0 -237z"/>
<path d="M3596 2668 c5 -88 5 -380 -1 -423 -12 -93 -16 -110 -32 -127 -18 -20
-17 -20 82 -20 108 0 109 1 92 20 -18 20 -23 66 -13 132 8 54 15 439 8 458 -3
8 -27 12 -72 12 l-68 0 4 -52z"/>
<path d="M5195 2418 c9 -27 30 -179 40 -293 8 -83 8 -337 1 -380 -2 -17 -7
-59 -10 -95 -31 -336 -201 -738 -408 -965 -33 -36 -55 -65 -50 -65 13 0 110
43 206 91 288 145 469 365 525 639 27 132 17 321 -25 485 -47 182 -112 328
-244 552 -23 40 -45 59 -35 31z"/>
<path d="M643 1993 c13 -21 26 -45 30 -55 9 -25 112 -173 175 -253 84 -106
255 -271 363 -352 462 -347 998 -493 1639 -448 63 4 123 8 132 8 24 2 14 12
-24 27 -18 7 -46 18 -63 25 -16 7 -75 32 -130 55 -55 23 -133 57 -173 76 -41
19 -75 34 -77 34 -8 0 -168 76 -305 145 -164 82 -212 110 -348 199 -144 94
-221 131 -452 211 -167 59 -337 129 -455 187 -108 53 -220 113 -240 128 -15
11 -85 50 -90 50 -3 0 5 -17 18 -37z"/>
<path d="M4975 1323 c-26 -39 -147 -156 -214 -206 -31 -23 -58 -44 -61 -47 -7
-7 -87 -60 -125 -82 -66 -40 -256 -128 -345 -161 -115 -42 -208 -69 -360 -101
-120 -26 -146 -30 -245 -42 -33 -3 -69 -8 -79 -10 -147 -27 -676 -21 -918 11
-29 4 -69 9 -88 11 -19 3 -51 7 -70 10 -19 3 -48 7 -65 9 -73 10 -94 14 -155
24 -36 7 -98 19 -138 28 -40 8 -75 13 -78 10 -11 -11 223 -150 389 -230 185
-91 481 -194 627 -221 14 -2 52 -9 85 -15 209 -38 494 -45 660 -16 224 39 341
76 502 156 323 162 589 484 688 833 19 67 16 79 -10 39z"/>
</g>
</svg>
